# xmcd
#
# Track frame offsets:
#	150
#	5371
#	35822
#	65466
#	106218
#	119865
#	142865
#	175720
#	219484
#	243090
#
# Disc length: 3809 seconds
#
# Revision: 0
# Processed by: cddbd v1.5.2PL0 Copyright (c) Steve Scherf et al.
# Submitted via: audiograbber 1.83.01
#
DISCID=860edf0a
DTITLE=Grateful Dead - 94-03-17 Rosemont Horizon, Rosemont IL
DYEAR=1900
DGENRE=
TTITLE0=Tuning
TTITLE1=Touch Of Grey
TTITLE2=Wang Dang Doodle
TTITLE3=Althea
TTITLE4=Me and My Uncle
TTITLE5=Mexicali Blues
TTITLE6=Lazy River Road
TTITLE7=Eternity
TTITLE8=Box Of Rain
TTITLE9=Iko Iko
EXTD=
EXTT0=
EXTT1=
EXTT2=
EXTT3=
EXTT4=
EXTT5=
EXTT6=
EXTT7=
EXTT8=
EXTT9=
PLAYORDER=
